<?xml version="1.0" standalone="no"?>
<!DOCTYPE svg PUBLIC "-//W3C//DTD SVG 20010904//EN"
 "http://www.w3.org/TR/2001/REC-SVG-20010904/DTD/svg10.dtd">
<svg version="1.0" xmlns="http://www.w3.org/2000/svg"
 width="256.000000pt" height="256.000000pt" viewBox="0 0 256.000000 256.000000"
 preserveAspectRatio="xMidYMid meet">
<metadata>
Created by potrace 1.16, written by Peter Selinger 2001-2019
</metadata>
<g transform="translate(0.000000,256.000000) scale(0.100000,-0.100000)"
fill="#000000" stroke="none">
<path d="M1 1998 c1 -520 2 -557 15 -484 29 159 100 336 195 481 65 99 249
285 345 348 150 98 330 172 490 201 73 13 36 14 -483 15 l-563 1 1 -562z"/>
<path d="M1511 2544 c165 -30 335 -98 484 -195 104 -68 286 -250 354 -354 95
-145 166 -322 195 -481 13 -73 14 -36 15 484 l1 562 -562 -1 c-509 -1 -556 -2
-487 -15z"/>
<path d="M1 563 l-1 -563 563 1 c519 1 556 2 483 15 -160 29 -340 103 -490
201 -91 60 -279 248 -339 339 -98 150 -172 330 -201 490 -13 73 -14 36 -15
-483z"/>
<path d="M2543 1045 c-24 -150 -101 -338 -200 -489 -60 -91 -248 -279 -339
-339 -150 -98 -330 -172 -490 -201 -73 -13 -36 -14 484 -15 l562 -1 0 560 c0
308 -1 560 -3 560 -1 0 -8 -34 -14 -75z"/>
</g>
</svg>
